<?xml version="1.0" encoding="UTF-8"?>
<svg xmlns="http://www.w3.org/2000/svg" xmlns:xlink="http://www.w3.org/1999/xlink" viewBox="0 0 167.03 167.38">
  <defs>
    <style>
      .cls-1 {
        opacity: .19;
      }

      .cls-1, .cls-2, .cls-3 {
        mix-blend-mode: multiply;
      }

      .cls-1, .cls-4, .cls-5, .cls-3 {
        fill: #a85e25;
      }

      .cls-2, .cls-5, .cls-3 {
        opacity: .56;
      }

      .cls-6 {
        clip-path: url(#clippath-2);
      }

      .cls-7 {
        isolation: isolate;
      }

      .cls-8 {
        opacity: .47;
      }

      .cls-8, .cls-9, .cls-10 {
        fill: #fff;
        mix-blend-mode: overlay;
      }

      .cls-10 {
        opacity: .3;
      }

      .cls-11 {
        clip-path: url(#clippath-6);
      }

      .cls-12 {
        clip-path: url(#clippath-7);
      }

      .cls-13 {
        clip-path: url(#clippath-1);
      }

      .cls-14 {
        clip-path: url(#clippath-4);
      }

      .cls-15 {
        clip-path: url(#clippath);
      }

      .cls-16 {
        fill: #a85e24;
      }

      .cls-17 {
        fill: none;
      }

      .cls-18 {
        clip-path: url(#clippath-3);
      }

      .cls-19 {
        clip-path: url(#clippath-5);
      }

      .cls-20 {
        fill: #db9f3b;
      }
    </style>
    <clipPath id="clippath">
      <path class="cls-17" d="m104.37,32.67c0,18.04-9.14,32.67-20.42,32.67s-20.42-14.63-20.42-32.67S83.95,0,83.95,0c0,0,20.42,14.63,20.42,32.67Z"/>
    </clipPath>
    <clipPath id="clippath-1">
      <path class="cls-17" d="m62.66,134.71c0-18.04,9.14-32.67,20.42-32.67s20.42,14.63,20.42,32.67-20.42,32.67-20.42,32.67c0,0-20.42-14.63-20.42-32.67Z"/>
    </clipPath>
    <clipPath id="clippath-2">
      <path class="cls-17" d="m134.42,62.57c-12.81,12.71-29.64,16.52-37.58,8.51-7.94-8.01-3.99-24.8,8.82-37.51s37.58-8.51,37.58-8.51c0,0,3.99,24.8-8.82,37.51Z"/>
    </clipPath>
    <clipPath id="clippath-3">
      <path class="cls-17" d="m32.61,104.81c12.81-12.71,29.64-16.52,37.58-8.51,7.94,8.01,3.99,24.8-8.82,37.51-12.81,12.71-37.58,8.51-37.58,8.51,0,0-3.99-24.8,8.82-37.51Z"/>
    </clipPath>
    <clipPath id="clippath-4">
      <path class="cls-17" d="m135.86,100.93c-18,1.26-33.23-6.84-34.02-18.09s13.17-21.39,31.17-22.65c18-1.26,34.02,18.09,34.02,18.09,0,0-13.17,21.39-31.17,22.65Z"/>
    </clipPath>
    <clipPath id="clippath-5">
      <path class="cls-17" d="m31.17,66.44c18-1.26,33.23,6.84,34.02,18.09.79,11.25-13.17,21.39-31.17,22.65C16.02,108.44,0,89.09,0,89.09c0,0,13.17-21.39,31.17-22.65Z"/>
    </clipPath>
    <clipPath id="clippath-6">
      <path class="cls-17" d="m103.9,134.9c-12.52-12.99-16.09-29.87-7.97-37.7,8.12-7.83,24.85-3.64,37.38,9.36,12.52,12.99,7.97,37.7,7.97,37.7,0,0-24.85,3.64-37.38-9.36Z"/>
    </clipPath>
    <clipPath id="clippath-7">
      <path class="cls-17" d="m63.75,33.11c12.52,12.99,16.09,29.87,7.97,37.7-8.12,7.83-24.85,3.64-37.38-9.36-12.52-12.99-7.97-37.7-7.97-37.7,0,0,24.85-3.64,37.38,9.36Z"/>
    </clipPath>
  </defs>
  <g class="cls-7">
    <g id="Layer_2" data-name="Layer 2">
      <g id="OBJECTS">
        <g>
          <g class="cls-15">
            <path class="cls-20" d="m104.37,32.67c0,18.04-9.14,32.67-20.42,32.67s-20.42-14.63-20.42-32.67S83.95,0,83.95,0c0,0,20.42,14.63,20.42,32.67Z"/>
            <path class="cls-1" d="m98.46,49.11c-4.2,5.08-10.26,7.81-16.84,6.62-9.07-1.64-15.27-9.45-17.85-18.08,1.5,15.68,9.97,27.69,20.18,27.69,10.8,0,19.63-13.41,20.37-30.4-.65,5.23-2.43,10.02-5.86,14.16Z"/>
            <path class="cls-8" d="m98.8,25.93c0,13.29-6.73,24.06-15.04,24.06s-15.04-10.77-15.04-24.06S83.76,1.87,83.76,1.87c0,0,15.04,10.77,15.04,24.06Z"/>
            <g class="cls-2">
              <path class="cls-4" d="m84.05-2.49l-.32,9.21-.3,9.21c-.19,6.14-.37,12.27-.47,18.41-.13,6.14-.19,12.28-.14,18.41.02,3.07.08,6.14.23,9.2.16,3.06.3,6.14,1.01,9.13-.78-2.98-.99-6.06-1.22-9.12-.19-3.07-.29-6.14-.36-9.21-.12-6.14-.06-12.29.04-18.43.14-6.14.32-12.28.57-18.42l.43-9.2.53-9.2Z"/>
            </g>
            <path class="cls-5" d="m74.08,6.9c-.34,1.24-.52,2.51-.68,3.78-.16,1.27-.24,2.55-.33,3.83-.04,1.28-.13,2.56-.11,3.84v1.92c0,.64.03,1.28.05,1.92l.07,1.92c.02.64.08,1.28.11,1.92.09,1.28.14,2.56.28,3.83l.37,3.83.49,3.82.24,1.91.29,1.9.58,3.8,1.38,7.57c.52,2.51,1.02,5.03,1.57,7.54l1.71,7.51-1.91-7.46c-.59-2.5-1.12-5.01-1.69-7.52-.27-1.26-.5-2.52-.74-3.78-.23-1.26-.49-2.52-.7-3.79l-.61-3.81-.3-1.9-.25-1.91-.47-3.83-.35-3.84c-.14-1.28-.17-2.56-.26-3.85-.03-.64-.09-1.28-.1-1.93l-.04-1.93c0-.64-.03-1.29-.03-1.93l.03-1.93c0-1.29.11-2.57.17-3.85.12-1.28.23-2.56.43-3.83.19-1.27.41-2.54.79-3.77Z"/>
            <path class="cls-5" d="m93.7,4.27c.61,5.26.83,10.56.86,15.86.02,5.3-.23,10.6-.73,15.88-.26,2.64-.6,5.27-1.01,7.89-.4,2.62-.91,5.23-1.5,7.81-.58,2.59-1.3,5.14-2.08,7.67-.81,2.52-1.74,5.01-2.78,7.44,1.93-4.93,3.43-10.02,4.54-15.18,1.12-5.17,1.91-10.4,2.41-15.66.54-5.26.78-10.55.83-15.84.03-2.64,0-5.29-.09-7.93-.07-2.64-.22-5.29-.44-7.93Z"/>
            <path class="cls-9" d="m70.74,22.32c.18.17.26.35.32.53.05.18.07.36.05.54-.02.18-.07.35-.17.52-.1.16-.22.32-.43.45-.14-.21-.2-.39-.24-.56-.04-.17-.04-.34-.02-.5.02-.16.06-.32.14-.48.08-.16.17-.32.36-.49Z"/>
            <path class="cls-9" d="m67.29,24.46c.14.3.19.57.22.84.03.27.03.54,0,.8-.02.26-.07.53-.15.79-.08.26-.19.52-.38.79-.18-.27-.25-.55-.31-.83-.05-.28-.06-.55-.03-.83.03-.27.09-.54.18-.81.1-.26.23-.52.45-.76Z"/>
            <path class="cls-9" d="m70.51,30.47c.17.15.25.3.31.45.05.15.07.29.07.44,0,.14-.05.28-.12.42-.08.14-.18.28-.37.41-.17-.15-.25-.3-.31-.45-.05-.15-.08-.29-.07-.44,0-.14.05-.28.12-.42.08-.14.18-.28.37-.41Z"/>
            <path class="cls-9" d="m68.23,37.35c.21.12.33.27.43.41.09.15.15.3.19.46.03.16.03.33,0,.5-.04.17-.09.35-.24.55-.21-.12-.33-.27-.43-.41-.09-.15-.15-.3-.19-.46-.03-.16-.03-.33,0-.5.04-.17.09-.35.24-.55Z"/>
            <path class="cls-9" d="m80.93,53.12c-.18-.09-.27-.18-.34-.27-.06-.09-.09-.18-.09-.27,0-.09.03-.18.09-.27.07-.09.16-.18.34-.27.18.09.27.18.34.27.06.09.09.18.09.27,0,.09-.03.18-.09.27-.07.09-.16.18-.34.27Z"/>
            <path class="cls-9" d="m80.6,46.57c-.17-.19-.25-.35-.31-.52-.06-.16-.09-.33-.1-.49,0-.16.01-.32.06-.49.05-.17.12-.34.27-.54.21.14.32.3.41.47.08.17.12.35.13.53,0,.18-.02.36-.09.54-.07.18-.17.35-.37.5Z"/>
            <path class="cls-9" d="m91.55,31.54c-.14-.23-.19-.44-.23-.65-.03-.21-.02-.41.02-.61.04-.2.1-.39.2-.57.1-.18.23-.36.45-.53.14.23.2.44.23.65.03.21.02.41-.02.61-.04.2-.1.39-.2.57-.1.18-.23.36-.44.53Z"/>
            <path class="cls-9" d="m89.62,27.15c-.14-.25-.2-.48-.24-.71-.04-.23-.04-.45-.03-.66.02-.22.06-.43.13-.65.08-.22.17-.44.35-.66.18.22.27.46.33.69.05.23.07.46.05.69-.02.23-.07.46-.16.68-.1.22-.22.43-.43.63Z"/>
            <path class="cls-9" d="m91.46,20.39c-.15-.24-.21-.46-.26-.69-.04-.22-.04-.44-.01-.66.03-.21.08-.43.17-.63.1-.21.21-.41.42-.6.15.24.22.46.26.69.04.22.04.44,0,.66-.03.21-.08.43-.18.63-.1.21-.21.41-.42.6Z"/>
            <path class="cls-9" d="m101.15,27.79c.2.19.32.38.41.58.09.2.14.4.17.61.02.21.02.42-.02.63-.04.21-.11.43-.27.66-.21-.19-.32-.38-.41-.58-.09-.2-.14-.4-.16-.61-.02-.21-.02-.42.02-.63.04-.21.11-.43.27-.66Z"/>
            <path class="cls-9" d="m100.36,35.95c.21.15.32.32.41.5.08.18.13.36.13.55,0,.19-.02.38-.08.56-.07.18-.17.37-.36.54-.17-.19-.26-.37-.33-.54-.06-.17-.1-.34-.1-.52,0-.17,0-.34.06-.52.05-.18.12-.36.27-.57Z"/>
          </g>
          <g class="cls-13">
            <path class="cls-20" d="m62.66,134.71c0-18.04,9.14-32.67,20.42-32.67s20.42,14.63,20.42,32.67-20.42,32.67-20.42,32.67c0,0-20.42-14.63-20.42-32.67Z"/>
            <path class="cls-1" d="m68.57,118.26c4.2-5.08,10.26-7.81,16.84-6.62,9.07,1.64,15.27,9.45,17.85,18.08-1.5-15.68-9.97-27.69-20.18-27.69-10.8,0-19.63,13.41-20.37,30.4.65-5.23,2.43-10.02,5.86-14.16Z"/>
            <path class="cls-8" d="m68.23,141.45c0-13.29,6.73-24.06,15.04-24.06s15.04,10.77,15.04,24.06-15.04,24.06-15.04,24.06c0,0-15.04-10.77-15.04-24.06Z"/>
            <g class="cls-2">
              <path class="cls-4" d="m82.98,169.86l.32-9.21.3-9.21c.19-6.14.37-12.27.47-18.41.13-6.14.19-12.28.14-18.41-.02-3.07-.08-6.14-.23-9.2-.16-3.06-.3-6.14-1.01-9.13.78,2.98.99,6.06,1.22,9.12.19,3.07.29,6.14.36,9.21.12,6.14.06,12.29-.04,18.43-.14,6.14-.32,12.28-.57,18.42l-.43,9.2-.53,9.2Z"/>
            </g>
            <path class="cls-5" d="m92.95,160.48c.34-1.24.52-2.51.68-3.78.16-1.27.24-2.55.33-3.83.04-1.28.13-2.56.11-3.84v-1.92c0-.64-.03-1.28-.05-1.92l-.07-1.92c-.02-.64-.08-1.28-.11-1.92-.09-1.28-.14-2.56-.28-3.83l-.37-3.83-.49-3.82-.24-1.91-.29-1.9-.58-3.8-1.38-7.57c-.52-2.51-1.02-5.03-1.57-7.54l-1.71-7.51,1.91,7.46c.59,2.5,1.12,5.01,1.69,7.52.27,1.26.5,2.52.74,3.78.23,1.26.49,2.52.7,3.79l.61,3.81.3,1.9.25,1.91.47,3.83.35,3.84c.14,1.28.17,2.56.26,3.85.03.64.09,1.28.1,1.93l.04,1.93c0,.64.03,1.28.03,1.93l-.03,1.93c0,1.29-.11,2.57-.17,3.85-.12,1.28-.23,2.56-.43,3.83-.19,1.27-.41,2.54-.79,3.77Z"/>
            <path class="cls-5" d="m73.33,163.1c-.61-5.26-.83-10.56-.86-15.86-.02-5.3.23-10.6.73-15.88.26-2.64.6-5.27,1.01-7.89.4-2.62.91-5.23,1.5-7.81.58-2.59,1.3-5.14,2.08-7.67.81-2.52,1.74-5.01,2.78-7.44-1.93,4.93-3.43,10.02-4.54,15.18-1.12,5.17-1.91,10.4-2.41,15.66-.54,5.26-.78,10.55-.83,15.84-.03,2.64,0,5.29.09,7.93.07,2.64.22,5.29.44,7.93Z"/>
            <path class="cls-9" d="m96.29,145.06c-.18-.17-.27-.35-.32-.53-.05-.18-.07-.36-.05-.54.02-.18.07-.35.17-.52.1-.16.22-.32.43-.45.14.21.2.39.24.56.04.17.04.34.02.5-.02.16-.06.32-.14.48-.08.16-.17.32-.36.49Z"/>
            <path class="cls-9" d="m99.74,142.92c-.14-.3-.19-.57-.22-.84-.03-.27-.03-.54,0-.8.02-.26.07-.53.15-.79.08-.26.19-.52.38-.79.18.27.25.55.31.83.05.28.06.55.03.83-.03.27-.09.54-.18.81-.1.26-.23.52-.45.76Z"/>
            <path class="cls-9" d="m96.52,136.91c-.17-.15-.25-.3-.31-.45-.05-.15-.07-.29-.07-.44,0-.14.05-.28.12-.42.08-.14.18-.28.37-.41.17.15.25.3.31.45.05.15.08.29.07.44,0,.14-.05.28-.12.42-.08.14-.18.28-.37.41Z"/>
            <path class="cls-9" d="m98.8,130.03c-.21-.13-.33-.27-.43-.41-.09-.15-.15-.3-.19-.46-.03-.16-.03-.33,0-.5.04-.17.09-.35.24-.55.21.12.33.27.43.41.09.15.15.3.19.46.03.16.03.33,0,.5-.04.17-.09.35-.24.55Z"/>
            <path class="cls-9" d="m86.1,114.26c.18.09.27.18.34.27.06.09.09.18.09.27,0,.09-.03.18-.09.27-.07.09-.16.18-.34.27-.18-.09-.27-.18-.34-.27-.06-.09-.09-.18-.09-.27,0-.09.03-.18.09-.27.07-.09.16-.18.34-.27Z"/>
            <path class="cls-9" d="m86.43,120.81c.17.19.25.35.31.52.06.16.09.33.1.49,0,.16-.01.32-.06.49-.05.17-.12.34-.27.54-.21-.14-.32-.3-.41-.47-.08-.17-.12-.35-.13-.53,0-.18.02-.36.09-.54.07-.18.17-.35.37-.5Z"/>
            <path class="cls-9" d="m75.49,135.83c.14.23.19.44.23.65.03.21.02.41-.02.61-.04.2-.1.39-.2.57-.1.18-.23.36-.45.53-.14-.23-.2-.44-.23-.65-.03-.21-.02-.41.02-.61.04-.2.1-.39.2-.57.1-.18.23-.36.44-.53Z"/>
            <path class="cls-9" d="m77.41,140.23c.14.25.2.48.24.71.04.23.04.45.03.66-.02.22-.06.43-.13.65-.08.22-.17.44-.35.66-.18-.22-.27-.46-.33-.69-.05-.23-.07-.46-.05-.69.02-.23.07-.46.16-.68.1-.22.22-.43.43-.63Z"/>
            <path class="cls-9" d="m75.57,146.99c.15.24.21.46.26.69.04.22.04.44.01.66-.03.21-.08.43-.17.63-.1.21-.21.41-.42.6-.15-.24-.22-.46-.26-.69-.04-.22-.04-.44,0-.66.03-.21.08-.43.18-.63.1-.21.21-.41.42-.6Z"/>
            <path class="cls-9" d="m65.88,139.59c-.2-.19-.32-.38-.41-.58-.09-.2-.14-.4-.17-.61-.02-.21-.02-.42.02-.63.04-.21.11-.43.27-.66.21.19.32.38.41.58.09.2.14.4.16.61.02.21.02.42-.02.63-.04.21-.11.43-.27.66Z"/>
            <path class="cls-9" d="m66.67,131.43c-.21-.15-.32-.32-.41-.5-.08-.18-.13-.36-.13-.55,0-.19.02-.38.08-.56.07-.18.17-.37.36-.54.17.19.26.37.33.54.06.17.1.34.1.52,0,.17,0,.34-.06.52-.05.18-.12.36-.27.57Z"/>
          </g>
          <g class="cls-6">
            <path class="cls-20" d="m134.42,62.57c-12.81,12.71-29.64,16.52-37.58,8.51-7.94-8.01-3.99-24.8,8.82-37.51s37.58-8.51,37.58-8.51c0,0,3.99,24.8-8.82,37.51Z"/>
            <path class="cls-1" d="m118.59,69.95c-6.56.59-12.77-1.79-16.56-7.3-5.22-7.6-4.04-17.5.27-25.4-10.08,12.11-12.64,26.58-5.45,33.83,7.6,7.67,23.35,4.49,35.92-6.95-4.17,3.22-8.83,5.33-14.18,5.82Z"/>
            <path class="cls-8" d="m135.28,53.87c-9.44,9.36-21.83,12.17-27.68,6.27-5.85-5.9-2.94-18.27,6.49-27.62,9.44-9.36,27.68-6.27,27.68-6.27,0,0,2.94,18.27-6.49,27.62Z"/>
            <g class="cls-2">
              <path class="cls-4" d="m145.07,23.38l-6.76,6.25-6.75,6.27c-4.49,4.19-8.98,8.38-13.41,12.63-4.45,4.23-8.85,8.51-13.18,12.87-2.16,2.18-4.3,4.38-6.37,6.65-2.06,2.27-4.15,4.54-5.77,7.15,1.56-2.65,3.61-4.98,5.62-7.29,2.04-2.3,4.15-4.53,6.29-6.74,4.28-4.41,8.68-8.69,13.11-12.95,4.46-4.23,8.94-8.42,13.48-12.56l6.83-6.18,6.91-6.1Z"/>
            </g>
            <path class="cls-5" d="m131.39,22.92c-1.12.63-2.15,1.4-3.17,2.18-1.02.78-1.98,1.62-2.95,2.46-.94.87-1.91,1.71-2.8,2.63l-1.37,1.35c-.45.45-.88.93-1.32,1.39l-1.32,1.4c-.44.47-.85.96-1.28,1.43-.84.97-1.72,1.9-2.53,2.9l-2.46,2.96-2.37,3.03-1.19,1.51-1.14,1.55-2.29,3.09-4.4,6.31c-1.41,2.14-2.85,4.27-4.24,6.42l-4.13,6.5,3.95-6.61c1.36-2.18,2.77-4.33,4.15-6.49.7-1.08,1.44-2.13,2.17-3.19.73-1.06,1.45-2.12,2.19-3.17l2.28-3.11,1.14-1.56,1.18-1.52,2.39-3.03,2.48-2.95c.81-1,1.7-1.93,2.55-2.89.43-.48.85-.96,1.3-1.43l1.34-1.38c.45-.46.89-.93,1.35-1.38l1.39-1.33c.91-.9,1.9-1.73,2.85-2.59.99-.82,1.98-1.64,3.02-2.4,1.03-.76,2.09-1.5,3.23-2.09Z"/>
            <path class="cls-5" d="m147.07,34.99c-3.31,4.14-6.91,8.03-10.66,11.78-3.75,3.74-7.69,7.3-11.79,10.66-2.05,1.68-4.17,3.28-6.31,4.83-2.14,1.56-4.35,3.04-6.6,4.43-2.25,1.41-4.57,2.7-6.91,3.92-2.36,1.2-4.78,2.29-7.24,3.26,4.86-2.1,9.53-4.62,13.98-7.47,4.45-2.85,8.73-5.97,12.82-9.32,4.11-3.32,8.04-6.88,11.83-10.56,1.9-1.84,3.75-3.73,5.57-5.65,1.83-1.91,3.6-3.88,5.32-5.89Z"/>
            <path class="cls-9" d="m118.09,31.4c0,.25-.06.44-.15.61-.09.16-.21.3-.35.41-.14.11-.3.2-.48.25-.18.05-.38.07-.62,0,.05-.25.13-.41.23-.57.1-.15.21-.27.34-.37.13-.1.27-.18.44-.24.17-.06.35-.1.6-.09Z"/>
            <path class="cls-9" d="m114.14,30.46c-.11.3-.27.54-.44.75-.17.21-.36.4-.57.57-.2.17-.43.32-.67.45-.25.12-.5.24-.82.29.07-.32.21-.57.37-.8.16-.23.35-.43.57-.6.21-.17.45-.32.7-.44.26-.11.53-.2.86-.21Z"/>
            <path class="cls-9" d="m112.14,36.98c.01.23-.04.39-.1.54-.07.14-.15.26-.26.35-.11.09-.24.17-.39.21-.15.04-.32.07-.55.02-.01-.23.04-.39.1-.54.07-.14.15-.26.26-.35.11-.09.24-.17.39-.21.15-.04.32-.07.55-.03Z"/>
            <path class="cls-9" d="m105.65,40.2c.06.24.04.42,0,.6-.04.17-.11.32-.2.46-.09.14-.21.25-.35.35-.15.1-.32.18-.56.21-.06-.24-.04-.42,0-.6.04-.17.11-.32.2-.46.09-.13.21-.25.35-.35.15-.1.32-.18.56-.21Z"/>
            <path class="cls-9" d="m103.4,60.33c-.06-.19-.06-.32-.05-.43.02-.11.06-.19.12-.26.06-.06.15-.11.26-.12.11-.01.24-.01.43.05.06.19.07.32.05.43-.02.11-.06.19-.13.25-.06.06-.15.1-.26.12-.11.01-.24.01-.43-.05Z"/>
            <path class="cls-9" d="m107.82,55.48c.01-.25.08-.42.15-.59.07-.16.17-.29.28-.41.11-.12.24-.22.39-.31.16-.08.33-.16.58-.19.05.25.01.44-.05.62-.06.18-.16.33-.28.47-.12.13-.27.24-.44.32-.18.07-.37.12-.62.09Z"/>
            <path class="cls-9" d="m126.19,52.67c.06-.26.18-.45.3-.62.13-.17.28-.3.44-.42.16-.11.35-.2.55-.26.2-.06.42-.09.69-.06-.06.26-.18.45-.3.62-.13.17-.28.3-.44.41-.17.11-.35.2-.55.26-.2.06-.42.09-.69.06Z"/>
            <path class="cls-9" d="m127.96,48.21c.08-.28.2-.48.33-.67.13-.19.29-.35.45-.49.17-.14.35-.26.55-.36.21-.1.43-.18.72-.21-.03.29-.13.51-.26.72-.13.2-.28.38-.46.53-.18.15-.37.27-.59.36-.22.09-.46.15-.75.13Z"/>
            <path class="cls-9" d="m134.05,44.75c.06-.28.18-.48.31-.67.13-.18.29-.34.46-.47.17-.13.36-.24.57-.32.21-.08.44-.14.72-.12-.06.28-.18.48-.31.67-.13.18-.29.34-.46.47-.17.13-.36.24-.57.32-.21.08-.44.14-.72.12Z"/>
            <path class="cls-9" d="m135.62,56.84c.01.28-.05.49-.12.7-.08.2-.19.38-.31.55-.13.16-.28.31-.46.43-.18.12-.38.22-.66.27-.01-.28.05-.49.12-.7.08-.2.19-.38.32-.54.13-.16.28-.31.46-.43.18-.12.38-.22.65-.27Z"/>
            <path class="cls-9" d="m129.27,62.03c.04.25,0,.45-.07.64-.07.18-.17.34-.3.48-.13.14-.28.25-.45.34-.18.08-.38.14-.63.12.01-.26.08-.44.15-.61.08-.17.18-.31.29-.44.12-.13.25-.24.41-.33.16-.09.34-.17.59-.21Z"/>
          </g>
          <g class="cls-18">
            <path class="cls-20" d="m32.61,104.81c12.81-12.71,29.64-16.52,37.58-8.51,7.94,8.01,3.99,24.8-8.82,37.51-12.81,12.71-37.58,8.51-37.58,8.51,0,0-3.99-24.8,8.82-37.51Z"/>
            <path class="cls-1" d="m48.44,97.43c6.56-.59,12.77,1.79,16.56,7.3,5.22,7.6,4.04,17.5-.27,25.4,10.08-12.11,12.64-26.58,5.45-33.83-7.6-7.67-23.35-4.49-35.92,6.95,4.17-3.22,8.83-5.33,14.18-5.82Z"/>
            <path class="cls-8" d="m31.75,113.51c9.44-9.36,21.83-12.17,27.68-6.27,5.85,5.9,2.94,18.27-6.49,27.62-9.44,9.36-27.68,6.27-27.68,6.27,0,0-2.94-18.27,6.49-27.62Z"/>
            <g class="cls-2">
              <path class="cls-4" d="m21.96,144l6.76-6.25,6.75-6.27c4.49-4.19,8.98-8.38,13.41-12.63,4.45-4.23,8.85-8.51,13.18-12.86,2.16-2.18,4.3-4.38,6.37-6.65,2.06-2.27,4.15-4.54,5.77-7.15-1.56,2.65-3.61,4.98-5.62,7.29-2.04,2.3-4.15,4.53-6.29,6.74-4.28,4.41-8.68,8.69-13.11,12.95-4.46,4.23-8.94,8.42-13.48,12.56l-6.83,6.18-6.91,6.1Z"/>
            </g>
            <path class="cls-5" d="m35.64,144.46c1.12-.63,2.15-1.4,3.17-2.18,1.02-.78,1.98-1.62,2.95-2.46.94-.87,1.91-1.71,2.8-2.63l1.37-1.35c.45-.45.88-.93,1.32-1.39l1.32-1.4c.44-.47.85-.96,1.28-1.43.84-.97,1.72-1.9,2.53-2.9l2.46-2.96,2.37-3.03,1.19-1.51,1.14-1.55,2.29-3.09,4.4-6.31c1.41-2.14,2.85-4.27,4.24-6.42l4.13-6.5-3.95,6.61c-1.36,2.18-2.77,4.33-4.15,6.49-.7,1.08-1.44,2.13-2.17,3.19-.73,1.06-1.45,2.12-2.19,3.17l-2.28,3.11-1.14,1.56-1.18,1.52-2.39,3.03-2.48,2.95c-.81,1-1.7,1.93-2.55,2.89-.43.48-.85.96-1.3,1.43l-1.34,1.38c-.45.46-.89.93-1.35,1.38l-1.39,1.33c-.91.9-1.9,1.73-2.85,2.59-.99.82-1.98,1.64-3.02,2.4-1.03.76-2.09,1.5-3.23,2.09Z"/>
            <path class="cls-5" d="m19.96,132.38c3.31-4.14,6.91-8.03,10.66-11.78,3.75-3.74,7.69-7.3,11.79-10.66,2.05-1.68,4.17-3.28,6.31-4.83,2.14-1.56,4.35-3.04,6.6-4.43,2.25-1.41,4.57-2.69,6.91-3.92,2.36-1.2,4.78-2.29,7.24-3.26-4.86,2.1-9.53,4.62-13.98,7.47-4.45,2.85-8.73,5.97-12.82,9.32-4.11,3.32-8.04,6.88-11.83,10.56-1.9,1.84-3.75,3.73-5.57,5.65-1.83,1.92-3.6,3.88-5.32,5.89Z"/>
            <path class="cls-9" d="m48.94,135.98c0-.25.06-.44.15-.61.09-.17.21-.3.35-.41.14-.11.3-.2.48-.25.18-.05.38-.07.62,0-.05.25-.13.41-.23.57-.1.15-.21.27-.34.37-.13.1-.27.18-.44.24-.17.06-.35.1-.6.09Z"/>
            <path class="cls-9" d="m52.89,136.92c.11-.3.27-.54.44-.75.17-.21.36-.4.57-.57.2-.17.43-.32.67-.45.25-.12.5-.24.82-.29-.07.32-.21.57-.37.8-.16.23-.35.43-.57.6-.21.17-.45.32-.7.44-.26.11-.53.2-.86.21Z"/>
            <path class="cls-9" d="m54.89,130.4c-.01-.23.04-.39.1-.54.07-.14.15-.26.26-.35s.24-.17.39-.21c.15-.04.32-.07.55-.02.01.23-.04.39-.1.54-.07.14-.15.26-.26.35-.11.09-.24.17-.39.21-.15.04-.32.07-.55.03Z"/>
            <path class="cls-9" d="m61.38,127.17c-.06-.24-.04-.42,0-.6.04-.17.11-.32.2-.46.09-.14.21-.25.35-.35.15-.1.32-.18.56-.21.06.24.04.42,0,.6-.04.17-.11.32-.2.46-.09.13-.21.25-.35.35-.15.1-.32.18-.56.21Z"/>
            <path class="cls-9" d="m63.63,107.05c.06.19.06.32.05.43-.02.11-.06.19-.12.26-.06.06-.15.11-.26.12-.11.01-.24.01-.43-.05-.06-.19-.07-.32-.05-.43.02-.11.06-.19.12-.25.06-.06.15-.1.26-.12.11-.01.24-.01.43.05Z"/>
            <path class="cls-9" d="m59.21,111.9c-.01.25-.08.42-.15.59-.07.16-.17.29-.28.41-.11.12-.24.22-.39.31-.16.08-.33.16-.58.19-.05-.25-.01-.44.05-.62.06-.18.16-.33.28-.47.12-.13.27-.24.44-.32.18-.07.37-.12.62-.09Z"/>
            <path class="cls-9" d="m40.84,114.71c-.06.26-.18.45-.3.62-.13.17-.28.3-.44.42-.16.11-.35.2-.55.26-.2.06-.42.09-.69.06.06-.26.18-.45.3-.62.13-.17.28-.3.44-.41.17-.11.35-.2.55-.26.2-.06.42-.09.69-.06Z"/>
            <path class="cls-9" d="m39.07,119.17c-.08.28-.2.48-.33.67-.13.19-.29.35-.45.49-.17.14-.35.26-.55.37-.21.1-.43.18-.72.21.03-.29.13-.51.26-.72.13-.2.28-.38.46-.53.18-.15.37-.27.59-.36.22-.09.46-.15.75-.13Z"/>
            <path class="cls-9" d="m32.98,122.63c-.06.28-.18.48-.31.67-.13.18-.29.34-.46.47-.17.13-.36.24-.57.32-.21.08-.44.14-.72.12.06-.28.18-.48.31-.67.13-.18.29-.34.46-.47s.36-.24.57-.32c.21-.08.44-.14.72-.12Z"/>
            <path class="cls-9" d="m31.41,110.54c-.01-.28.05-.49.12-.7.08-.2.19-.38.31-.55s.28-.31.46-.43c.18-.12.38-.22.66-.27.01.28-.05.49-.12.7-.08.2-.19.38-.32.54-.13.16-.28.31-.46.43-.18.12-.38.22-.65.27Z"/>
            <path class="cls-9" d="m37.76,105.35c-.04-.25,0-.45.07-.64.07-.18.17-.34.3-.48.13-.14.28-.25.45-.34.18-.08.38-.14.63-.12-.01.26-.08.44-.15.61-.08.17-.18.31-.29.44-.12.13-.25.24-.41.33-.16.09-.34.17-.59.21Z"/>
          </g>
          <g class="cls-14">
            <path class="cls-20" d="m135.86,100.93c-18,1.26-33.23-6.84-34.02-18.09s13.17-21.39,31.17-22.65c18-1.26,34.02,18.09,34.02,18.09,0,0-13.17,21.39-31.17,22.65Z"/>
            <path class="cls-1" d="m119.05,96.18c-5.36-3.84-8.51-9.69-7.78-16.34,1.01-9.16,8.36-15.9,16.79-19.07-15.54,2.59-26.93,11.87-26.22,22.07.75,10.77,14.75,18.65,31.74,18.2-5.26-.28-10.17-1.73-14.54-4.86Z"/>
            <path class="cls-8" d="m142.2,94.91c-13.26.93-24.47-5.04-25.05-13.32-.58-8.29,9.7-15.75,22.96-16.68,13.26-.93,25.05,13.32,25.05,13.32,0,0-9.7,15.75-22.96,16.68Z"/>
            <g class="cls-2">
              <path class="cls-4" d="m169.52,78.21l-9.21.32-9.2.34c-6.14.24-12.27.49-18.4.81-6.13.29-12.26.66-18.38,1.14-3.06.23-6.12.51-9.16.87-3.04.37-6.11.73-9.04,1.64,2.91-.99,5.98-1.41,9.01-1.86,3.05-.41,6.1-.72,9.16-1,6.12-.55,12.25-.91,18.39-1.24,6.14-.29,12.27-.54,18.41-.71l9.21-.22,9.21-.11Z"/>
            </g>
            <path class="cls-5" d="m159.46,68.92c-1.26-.25-2.54-.35-3.82-.42-1.28-.08-2.56-.06-3.84-.06-1.28.05-2.56.05-3.84.16l-1.92.13c-.64.05-1.28.13-1.91.19l-1.91.2c-.64.07-1.27.17-1.91.25-1.27.18-2.54.31-3.81.55l-3.79.64-3.77.75-1.89.37-1.88.42-3.75.85-7.46,1.9c-2.47.7-4.95,1.37-7.41,2.09l-7.37,2.23,7.31-2.43c2.45-.76,4.92-1.47,7.38-2.21,1.23-.36,2.48-.67,3.72-1,1.24-.32,2.48-.66,3.73-.97l3.75-.87,1.88-.43,1.89-.38,3.78-.73,3.81-.62c1.27-.23,2.55-.35,3.82-.53.64-.08,1.27-.17,1.91-.24l1.92-.17c.64-.05,1.28-.12,1.92-.16l1.93-.1c1.28-.09,2.57-.07,3.85-.1,1.29.03,2.57.05,3.85.16,1.28.1,2.56.23,3.81.53Z"/>
            <path class="cls-5" d="m163.45,88.31c-5.21.97-10.48,1.57-15.76,1.96-5.28.39-10.59.51-15.89.38-2.65-.07-5.3-.24-7.94-.46-2.64-.22-5.28-.54-7.89-.95-2.62-.4-5.22-.94-7.8-1.54-2.57-.63-5.12-1.39-7.62-2.26,5.05,1.59,10.23,2.72,15.46,3.47,5.23.75,10.51,1.18,15.79,1.31,5.28.17,10.58.04,15.85-.27,2.64-.16,5.28-.37,7.91-.64,2.63-.26,5.26-.59,7.88-.99Z"/>
            <path class="cls-9" d="m143.85,66.66c-.16.19-.33.29-.51.36-.18.07-.36.09-.54.09-.18,0-.36-.05-.53-.13-.17-.09-.33-.2-.48-.4.2-.16.37-.23.54-.28.17-.05.33-.07.5-.06.16,0,.33.04.49.1.17.07.33.15.52.32Z"/>
            <path class="cls-9" d="m141.47,63.37c-.29.16-.56.23-.83.28-.27.05-.53.07-.8.06-.26,0-.53-.04-.8-.1-.27-.07-.54-.15-.81-.32.26-.19.53-.29.81-.36.27-.07.55-.09.82-.09.27,0,.55.05.82.13.27.09.54.2.79.4Z"/>
            <path class="cls-9" d="m135.69,67c-.14.18-.29.27-.43.34-.14.06-.29.1-.43.1-.14,0-.29-.03-.43-.09-.14-.07-.29-.16-.43-.34.14-.18.29-.27.43-.34.14-.06.29-.1.43-.1.14,0,.29.03.43.09.14.07.29.16.43.34Z"/>
            <path class="cls-9" d="m128.68,65.21c-.11.22-.24.35-.38.46-.14.1-.29.18-.45.22-.16.04-.32.06-.5.04-.18-.02-.36-.07-.56-.2.11-.22.24-.35.38-.46.14-.1.29-.18.45-.22.16-.04.32-.06.5-.04.18.02.36.07.56.2Z"/>
            <path class="cls-9" d="m113.83,78.98c.08-.19.16-.28.24-.36.08-.07.17-.11.26-.11.09,0,.18.02.27.07.09.06.19.15.29.32-.08.19-.16.29-.24.36-.08.07-.17.11-.26.11-.09,0-.18-.02-.27-.08-.09-.06-.19-.15-.29-.32Z"/>
            <path class="cls-9" d="m120.34,78.19c.17-.18.34-.27.5-.35.16-.07.32-.11.48-.13.16-.02.32-.01.5.02.17.04.35.1.56.23-.12.22-.28.34-.44.44-.16.09-.34.15-.52.17-.18.02-.36,0-.54-.05-.18-.06-.36-.15-.53-.33Z"/>
            <path class="cls-9" d="m136.09,88.06c.22-.16.43-.22.63-.27.21-.04.41-.05.61-.03.2.02.39.07.59.16.19.09.38.2.56.41-.22.16-.43.23-.63.27-.21.04-.41.05-.61.02-.2-.02-.39-.08-.59-.16-.19-.09-.38-.2-.56-.41Z"/>
            <path class="cls-9" d="m140.35,85.84c.24-.16.47-.23.69-.29.22-.05.44-.08.66-.07.22,0,.44.03.66.09.22.06.45.14.68.31-.21.2-.44.3-.66.38-.23.07-.46.1-.69.1-.23,0-.46-.04-.69-.12-.23-.08-.45-.19-.65-.39Z"/>
            <path class="cls-9" d="m147.22,87.2c.23-.17.45-.25.67-.3.22-.05.44-.07.65-.06.22.01.43.05.64.13.21.08.42.18.63.38-.23.17-.45.25-.67.3-.22.05-.44.07-.65.06s-.43-.06-.64-.13c-.21-.08-.42-.18-.63-.38Z"/>
            <path class="cls-9" d="m140.51,97.38c-.17.22-.36.34-.55.45-.19.1-.39.17-.59.21-.2.04-.41.05-.63.02-.22-.03-.44-.08-.67-.22.17-.22.36-.35.55-.45.19-.1.39-.17.59-.21.2-.04.41-.05.63-.02.22.03.44.08.67.22Z"/>
            <path class="cls-9" d="m132.32,97.16c-.14.22-.3.34-.47.44-.17.09-.35.15-.54.17-.19.02-.38.01-.56-.04-.19-.06-.38-.14-.56-.32.18-.18.35-.28.52-.36.17-.07.34-.12.51-.14.17-.02.34-.01.53.02.18.04.37.09.59.23Z"/>
          </g>
          <g class="cls-19">
            <path class="cls-20" d="m31.17,66.44c18-1.26,33.23,6.84,34.02,18.09.79,11.25-13.17,21.39-31.17,22.65C16.02,108.44,0,89.09,0,89.09c0,0,13.17-21.39,31.17-22.65Z"/>
            <path class="cls-1" d="m47.98,71.2c5.36,3.84,8.51,9.69,7.78,16.34-1.01,9.16-8.36,15.9-16.79,19.07,15.54-2.59,26.93-11.87,26.22-22.07-.75-10.77-14.75-18.65-31.74-18.2,5.26.28,10.17,1.73,14.54,4.86Z"/>
            <path class="cls-8" d="m24.83,72.47c13.26-.93,24.47,5.04,25.05,13.32.58,8.29-9.7,15.75-22.96,16.68-13.26.93-25.05-13.32-25.05-13.32,0,0,9.7-15.75,22.96-16.68Z"/>
            <g class="cls-2">
              <path class="cls-4" d="m-2.49,89.17l9.21-.32,9.2-.34c6.13-.24,12.27-.49,18.4-.81,6.13-.29,12.26-.66,18.38-1.14,3.06-.23,6.12-.51,9.16-.87,3.04-.37,6.11-.73,9.04-1.64-2.91.99-5.98,1.41-9.01,1.86-3.05.41-6.1.72-9.16,1-6.12.55-12.25.91-18.39,1.24-6.14.29-12.27.54-18.41.71l-9.21.22-9.21.11Z"/>
            </g>
            <path class="cls-5" d="m7.57,98.45c1.26.25,2.54.35,3.82.42,1.28.08,2.56.06,3.84.06,1.28-.05,2.56-.05,3.84-.16l1.92-.13c.64-.05,1.28-.13,1.91-.19l1.91-.2c.64-.07,1.27-.17,1.91-.25,1.27-.18,2.54-.31,3.81-.55l3.79-.64,3.77-.75,1.89-.37,1.88-.42,3.75-.85,7.46-1.9c2.47-.7,4.95-1.37,7.41-2.09l7.37-2.23-7.31,2.43c-2.45.76-4.92,1.47-7.38,2.21-1.23.36-2.48.67-3.72,1-1.24.32-2.48.66-3.73.97l-3.75.87-1.88.43-1.89.38-3.78.73-3.81.62c-1.27.23-2.55.35-3.82.53-.64.08-1.27.17-1.91.24l-1.92.17c-.64.05-1.28.12-1.92.16l-1.93.1c-1.28.09-2.57.07-3.85.1-1.29-.03-2.57-.05-3.85-.16-1.28-.1-2.56-.23-3.81-.53Z"/>
            <path class="cls-5" d="m3.58,79.07c5.21-.97,10.48-1.57,15.76-1.96,5.28-.39,10.59-.51,15.89-.38,2.65.07,5.3.24,7.94.46,2.64.22,5.28.54,7.89.95,2.62.4,5.22.94,7.8,1.54,2.57.63,5.12,1.39,7.62,2.26-5.05-1.59-10.23-2.72-15.46-3.47-5.23-.75-10.51-1.18-15.79-1.31-5.28-.17-10.58-.04-15.86.27-2.64.15-5.28.37-7.91.64-2.63.26-5.26.59-7.88.99Z"/>
            <path class="cls-9" d="m23.18,100.71c.16-.19.33-.29.51-.36.18-.07.36-.09.54-.09.18,0,.36.05.53.13.17.09.33.2.48.4-.2.16-.37.23-.54.28-.17.05-.33.07-.5.06-.16,0-.33-.04-.49-.1-.17-.07-.33-.15-.52-.32Z"/>
            <path class="cls-9" d="m25.56,104.01c.29-.16.56-.23.83-.28.27-.05.53-.07.8-.06.26,0,.53.04.8.1.27.07.54.15.81.32-.26.19-.53.29-.81.36-.27.07-.55.09-.82.09-.27,0-.55-.05-.82-.13-.27-.08-.54-.2-.79-.4Z"/>
            <path class="cls-9" d="m31.34,100.37c.14-.18.29-.27.43-.34.14-.06.29-.1.43-.1.14,0,.29.03.43.09.14.07.29.16.43.34-.14.18-.29.27-.43.34-.14.06-.29.1-.43.1-.14,0-.29-.03-.43-.09-.14-.07-.29-.16-.43-.34Z"/>
            <path class="cls-9" d="m38.35,102.17c.11-.22.24-.35.38-.46.14-.1.29-.18.45-.22.16-.04.32-.06.5-.04.18.02.36.07.56.2-.11.22-.24.35-.38.46-.14.1-.29.18-.45.22-.16.04-.32.06-.5.04-.18-.02-.36-.07-.56-.2Z"/>
            <path class="cls-9" d="m53.2,88.4c-.08.19-.16.28-.24.36-.08.07-.17.11-.26.11-.09,0-.18-.02-.27-.07-.09-.06-.19-.15-.29-.32.08-.19.16-.29.24-.36.08-.07.17-.11.26-.11.09,0,.18.02.27.08.09.06.19.15.29.32Z"/>
            <path class="cls-9" d="m46.69,89.19c-.17.18-.34.27-.5.35-.16.07-.32.11-.48.13-.16.02-.32.01-.5-.02-.17-.04-.35-.1-.56-.23.12-.22.28-.34.44-.44.16-.09.34-.15.52-.17.18-.02.36,0,.54.05.18.06.36.15.53.33Z"/>
            <path class="cls-9" d="m30.94,79.32c-.22.16-.43.22-.63.27-.21.04-.41.05-.61.03-.2-.02-.39-.07-.59-.16-.19-.09-.38-.2-.56-.41.22-.16.43-.23.63-.27.21-.04.41-.05.61-.02.2.02.39.08.59.16.19.09.38.2.56.41Z"/>
            <path class="cls-9" d="m26.68,81.54c-.24.16-.47.23-.69.29-.22.05-.44.08-.66.07-.22,0-.44-.03-.66-.09-.22-.06-.45-.14-.68-.31.21-.2.44-.3.66-.38.23-.07.46-.1.69-.1.23,0,.46.04.69.12.23.08.45.19.65.39Z"/>
            <path class="cls-9" d="m19.81,80.18c-.23.17-.45.25-.67.3-.22.05-.44.07-.65.06-.22-.01-.43-.05-.64-.13-.21-.08-.42-.18-.63-.38.23-.17.45-.25.67-.3.22-.05.44-.07.65-.06.22.01.43.06.64.13.21.08.42.18.63.38Z"/>
            <path class="cls-9" d="m26.52,70c.17-.22.36-.34.55-.45.19-.1.39-.17.59-.21.2-.04.41-.05.63-.02.22.03.44.08.67.22-.17.22-.36.35-.55.45-.19.1-.39.17-.59.21-.2.04-.41.05-.63.02-.22-.03-.44-.08-.67-.22Z"/>
            <path class="cls-9" d="m34.71,70.22c.14-.22.3-.34.47-.44.17-.09.35-.15.54-.17.19-.02.38-.01.56.04.19.06.38.14.56.32-.18.18-.35.28-.52.36-.17.07-.34.12-.51.14-.17.02-.34.01-.53-.02-.18-.04-.37-.09-.59-.23Z"/>
          </g>
          <g class="cls-11">
            <path class="cls-20" d="m103.9,134.9c-12.52-12.99-16.09-29.87-7.97-37.7,8.12-7.83,24.85-3.64,37.38,9.36,12.52,12.99,7.97,37.7,7.97,37.7,0,0-24.85,3.64-37.38-9.36Z"/>
            <path class="cls-1" d="m96.75,118.95c-.5-6.57,1.97-12.75,7.53-16.45,7.67-5.11,17.56-3.79,25.4.63-11.96-10.25-26.39-13.02-33.75-5.93-7.78,7.49-4.83,23.28,6.43,36.02-3.16-4.21-5.2-8.91-5.61-14.26Z"/>
            <path class="cls-8" d="m112.59,135.88c-9.22-9.57-11.85-22-5.87-27.76,5.98-5.76,18.31-2.68,27.53,6.89,9.22,9.57,5.87,27.76,5.87,27.76,0,0-18.31,2.68-27.53-6.89Z"/>
            <g class="cls-2">
              <path class="cls-4" d="m142.93,146.11l-6.16-6.85-6.17-6.84c-4.12-4.55-8.25-9.1-12.44-13.59-4.16-4.51-8.38-8.97-12.67-13.36-2.14-2.2-4.32-4.36-6.55-6.46-2.24-2.09-4.48-4.22-7.07-5.88,2.63,1.6,4.92,3.68,7.21,5.72,2.27,2.07,4.47,4.22,6.65,6.38,4.35,4.34,8.57,8.81,12.76,13.3,4.16,4.52,8.29,9.06,12.37,13.66l6.08,6.92,6,6.99Z"/>
            </g>
            <path class="cls-5" d="m143.59,132.44c-.62-1.13-1.37-2.17-2.13-3.2-.76-1.03-1.6-2.01-2.42-2.99-.86-.95-1.69-1.93-2.59-2.84l-1.33-1.39c-.45-.46-.92-.9-1.37-1.34l-1.38-1.34c-.46-.44-.94-.87-1.41-1.3-.95-.86-1.87-1.75-2.86-2.57l-2.92-2.5-3-2.41-1.5-1.21-1.53-1.17-3.06-2.33-6.25-4.49c-2.12-1.44-4.23-2.91-6.36-4.34l-6.44-4.22,6.56,4.04c2.16,1.39,4.29,2.83,6.43,4.24,1.07.72,2.11,1.47,3.16,2.21,1.04.75,2.1,1.48,3.14,2.24l3.08,2.32,1.54,1.16,1.51,1.2,2.99,2.43,2.92,2.52c.99.83,1.91,1.73,2.86,2.59.47.44.95.86,1.41,1.32l1.36,1.36c.45.46.92.9,1.36,1.37l1.31,1.41c.89.93,1.71,1.92,2.55,2.89.8,1,1.61,2,2.35,3.06.75,1.04,1.47,2.12,2.04,3.26Z"/>
            <path class="cls-5" d="m131.29,147.94c-4.09-3.37-7.93-7.03-11.62-10.82-3.69-3.8-7.19-7.79-10.49-11.94-1.65-2.08-3.22-4.21-4.74-6.38-1.53-2.17-2.97-4.39-4.34-6.66-1.38-2.27-2.63-4.6-3.82-6.97-1.17-2.38-2.22-4.81-3.16-7.29,2.03,4.89,4.48,9.59,7.27,14.08,2.78,4.49,5.84,8.81,9.14,12.95,3.26,4.16,6.76,8.13,10.39,11.98,1.81,1.92,3.67,3.81,5.57,5.65,1.89,1.85,3.83,3.66,5.81,5.4Z"/>
            <path class="cls-9" d="m135.3,119.02c-.25,0-.44-.07-.6-.16-.16-.09-.3-.21-.41-.36-.11-.14-.19-.3-.24-.49-.04-.18-.06-.38,0-.62.24.05.41.14.56.24.15.1.27.21.37.34.1.13.18.28.24.44.05.17.1.35.09.6Z"/>
            <path class="cls-9" d="m136.3,115.08c-.3-.12-.53-.28-.75-.45-.21-.18-.39-.37-.56-.57-.17-.21-.31-.43-.44-.67-.12-.25-.23-.51-.28-.83.32.08.57.22.8.38.23.17.42.36.6.58.17.22.32.45.43.71.11.26.19.54.2.86Z"/>
            <path class="cls-9" d="m129.81,112.98c-.23,0-.39-.04-.54-.11-.14-.07-.26-.16-.35-.27-.09-.11-.16-.24-.21-.39-.04-.15-.06-.32-.02-.55.23,0,.39.04.54.11.14.07.26.16.35.27.09.11.16.24.21.39.04.15.06.32.02.55Z"/>
            <path class="cls-9" d="m126.68,106.45c-.24.06-.42.04-.6,0-.17-.04-.32-.11-.45-.2-.13-.09-.25-.21-.35-.36-.09-.15-.18-.32-.21-.56.24-.06.42-.04.6,0,.17.04.32.11.45.2.13.09.25.21.35.36.09.15.18.32.21.56Z"/>
            <path class="cls-9" d="m106.59,103.91c.19-.06.32-.06.43-.04.11.02.19.06.25.13.06.06.1.15.12.26.01.11,0,.24-.06.43-.19.06-.32.06-.43.04-.11-.02-.19-.06-.25-.13-.06-.06-.1-.15-.12-.26-.01-.11,0-.24.06-.43Z"/>
            <path class="cls-9" d="m111.37,108.39c.25.02.42.08.59.16.16.08.29.17.41.28.12.11.22.24.3.39.08.16.15.33.18.58-.25.05-.44,0-.62-.06-.18-.07-.33-.16-.46-.29-.13-.12-.24-.27-.31-.45-.07-.18-.12-.37-.08-.62Z"/>
            <path class="cls-9" d="m113.92,126.81c.26.07.45.18.62.31.16.13.3.28.41.45.11.17.2.35.25.55.05.2.09.42.05.69-.26-.07-.45-.18-.62-.31-.16-.13-.3-.28-.41-.45s-.2-.35-.25-.55c-.05-.21-.09-.42-.05-.69Z"/>
            <path class="cls-9" d="m118.35,128.64c.28.08.48.21.67.34.18.14.34.29.48.46.14.17.26.35.36.56.09.21.18.43.2.72-.29-.03-.51-.14-.71-.27-.2-.13-.37-.28-.52-.46-.15-.18-.27-.38-.35-.6-.08-.22-.14-.46-.12-.75Z"/>
            <path class="cls-9" d="m121.72,134.78c.27.07.48.18.66.32.18.14.33.29.46.46.13.17.23.36.31.58.07.21.13.44.11.72-.28-.06-.48-.18-.66-.32-.18-.14-.33-.29-.46-.47-.13-.17-.23-.37-.31-.58-.07-.22-.13-.44-.11-.72Z"/>
            <path class="cls-9" d="m109.61,136.18c-.28,0-.49-.05-.7-.13-.2-.08-.38-.19-.54-.32-.16-.13-.3-.29-.42-.47-.12-.19-.22-.39-.26-.66.28,0,.49.05.7.13.2.08.38.19.54.32.16.13.3.29.42.47.12.19.22.39.26.66Z"/>
            <path class="cls-9" d="m104.52,129.75c-.25.03-.45-.01-.64-.08-.18-.07-.34-.17-.48-.3-.14-.13-.25-.28-.33-.46-.08-.18-.14-.38-.11-.64.26.02.44.08.61.16.17.08.31.18.43.3.12.12.23.25.32.42.09.17.17.34.2.6Z"/>
          </g>
          <g class="cls-12">
            <path class="cls-20" d="m63.75,33.11c12.52,12.99,16.09,29.87,7.97,37.7-8.12,7.83-24.85,3.64-37.38-9.36-12.52-12.99-7.97-37.7-7.97-37.7,0,0,24.85-3.64,37.38,9.36Z"/>
            <path class="cls-1" d="m70.91,49.05c.5,6.57-1.97,12.75-7.53,16.45-7.67,5.11-17.56,3.79-25.4-.63,11.96,10.25,26.39,13.02,33.75,5.93,7.78-7.49,4.83-23.28-6.43-36.02,3.16,4.21,5.2,8.91,5.61,14.26Z"/>
            <path class="cls-8" d="m55.07,32.12c9.22,9.57,11.85,22,5.87,27.76-5.98,5.76-18.31,2.68-27.53-6.89-9.22-9.57-5.87-27.76-5.87-27.76,0,0,18.31-2.68,27.53,6.89Z"/>
            <g class="cls-2">
              <path class="cls-4" d="m24.72,21.89l6.16,6.85,6.17,6.84c4.12,4.55,8.25,9.1,12.44,13.59,4.16,4.51,8.38,8.97,12.67,13.36,2.14,2.2,4.32,4.36,6.55,6.46,2.24,2.09,4.48,4.22,7.07,5.88-2.63-1.6-4.92-3.68-7.21-5.72-2.27-2.07-4.47-4.22-6.65-6.38-4.35-4.34-8.57-8.81-12.76-13.3-4.16-4.52-8.29-9.06-12.37-13.66l-6.08-6.92-6-6.99Z"/>
            </g>
            <path class="cls-5" d="m24.06,35.57c.62,1.13,1.37,2.17,2.13,3.2.76,1.03,1.6,2.01,2.42,2.99.86.95,1.69,1.93,2.59,2.84l1.33,1.39c.45.46.92.9,1.37,1.34l1.38,1.34c.46.44.94.87,1.41,1.3.95.86,1.87,1.75,2.86,2.57l2.92,2.5,3,2.41,1.5,1.21,1.53,1.17,3.06,2.33,6.25,4.49c2.12,1.44,4.23,2.91,6.36,4.34l6.44,4.22-6.56-4.04c-2.16-1.39-4.29-2.83-6.43-4.24-1.07-.72-2.11-1.47-3.16-2.21-1.04-.75-2.1-1.48-3.14-2.24l-3.08-2.32-1.54-1.16-1.51-1.2-2.99-2.43-2.92-2.52c-.99-.83-1.91-1.73-2.86-2.59-.47-.44-.95-.86-1.41-1.32l-1.36-1.36c-.45-.46-.92-.9-1.36-1.37l-1.31-1.41c-.89-.93-1.71-1.92-2.55-2.89-.8-1-1.61-2-2.35-3.06-.75-1.04-1.47-2.12-2.04-3.26Z"/>
            <path class="cls-5" d="m36.36,20.07c4.09,3.37,7.93,7.03,11.62,10.83,3.69,3.8,7.19,7.79,10.49,11.94,1.65,2.08,3.22,4.21,4.74,6.38,1.53,2.17,2.97,4.39,4.34,6.66,1.38,2.27,2.63,4.6,3.82,6.97,1.17,2.38,2.22,4.81,3.16,7.29-2.03-4.89-4.48-9.59-7.27-14.08-2.78-4.5-5.84-8.82-9.14-12.95-3.26-4.16-6.76-8.13-10.39-11.98-1.81-1.92-3.67-3.81-5.57-5.65-1.89-1.85-3.83-3.66-5.81-5.4Z"/>
            <path class="cls-9" d="m32.35,48.99c.25,0,.44.07.6.16.16.09.3.21.41.36.11.14.19.3.24.49.04.18.06.38,0,.62-.24-.05-.41-.14-.56-.24-.15-.1-.27-.21-.37-.34-.1-.13-.18-.28-.24-.44-.05-.17-.1-.35-.09-.6Z"/>
            <path class="cls-9" d="m31.36,52.93c.3.12.53.28.75.45.21.18.39.37.56.57.17.21.31.43.44.67.12.25.23.51.28.83-.32-.08-.57-.22-.8-.38-.23-.17-.42-.36-.6-.58-.17-.22-.32-.45-.43-.71-.11-.26-.19-.54-.2-.86Z"/>
            <path class="cls-9" d="m37.85,55.02c.23,0,.39.04.54.11.14.07.26.16.35.27.09.11.16.24.21.39.04.15.06.32.02.55-.23,0-.39-.04-.54-.11-.14-.07-.26-.16-.35-.27-.09-.11-.16-.24-.21-.39-.04-.15-.06-.32-.02-.55Z"/>
            <path class="cls-9" d="m40.98,61.55c.24-.06.42-.04.6,0,.17.04.32.11.45.2.13.09.25.21.35.36.09.15.18.32.21.56-.24.06-.42.04-.6,0-.17-.04-.32-.11-.45-.2-.13-.09-.25-.21-.35-.36-.09-.15-.18-.32-.21-.56Z"/>
            <path class="cls-9" d="m61.06,64.09c-.19.06-.32.06-.43.04-.11-.02-.19-.06-.25-.13-.06-.06-.1-.15-.12-.26-.01-.11,0-.24.06-.43.19-.06.32-.06.43-.04.11.02.19.06.25.13.06.06.1.15.12.26.01.11,0,.24-.06.43Z"/>
            <path class="cls-9" d="m56.28,59.61c-.25-.02-.42-.08-.59-.16-.16-.08-.29-.17-.41-.28-.12-.11-.22-.24-.3-.39-.08-.16-.15-.33-.18-.58.25-.05.44,0,.62.06.18.07.33.16.46.29.13.12.24.27.31.45.07.18.12.37.08.62Z"/>
            <path class="cls-9" d="m53.74,41.19c-.26-.07-.45-.18-.62-.31-.16-.13-.3-.28-.41-.45-.11-.17-.2-.35-.25-.55-.05-.2-.09-.42-.05-.69.26.07.45.18.62.31.16.13.3.28.41.45.11.17.2.35.25.55.05.21.09.42.05.69Z"/>
            <path class="cls-9" d="m49.3,39.36c-.28-.08-.48-.21-.67-.34-.18-.14-.34-.29-.48-.46-.14-.17-.26-.35-.36-.56-.09-.21-.18-.43-.2-.72.29.03.51.14.71.27.2.13.37.28.52.46.15.18.27.38.35.6.08.22.14.46.12.75Z"/>
            <path class="cls-9" d="m45.93,33.22c-.27-.07-.48-.19-.66-.32-.18-.14-.33-.29-.46-.46-.13-.17-.23-.36-.31-.58-.07-.21-.13-.44-.11-.73.28.06.48.18.66.32.18.14.33.29.46.47.13.17.23.37.31.58.07.21.13.44.11.72Z"/>
            <path class="cls-9" d="m58.04,31.82c.28,0,.49.05.7.13.2.08.38.19.54.32s.3.29.42.47c.12.19.22.39.26.66-.28,0-.49-.05-.7-.13-.2-.08-.38-.19-.54-.32-.16-.13-.3-.29-.42-.47-.12-.19-.22-.39-.26-.66Z"/>
            <path class="cls-9" d="m63.14,38.25c.25-.03.45.01.64.08.18.07.34.17.48.3.14.13.25.28.33.46.08.18.14.38.11.63-.26-.02-.44-.08-.61-.16-.17-.08-.31-.18-.43-.3-.12-.12-.23-.25-.32-.42-.09-.17-.17-.34-.2-.6Z"/>
          </g>
          <circle class="cls-16" cx="84.9" cy="83.5" r="26.14"/>
          <circle class="cls-10" cx="83.5" cy="79.65" r="18.08" transform="translate(-23.94 37.53) rotate(-22.24)"/>
          <path class="cls-3" d="m110.59,78.72c-1.05,8.33-5.17,16.22-12.51,20.95-10.78,6.94-25.21,4.68-34.08-4.24-1.77-1.78-3.28-3.74-4.51-5.84,2.75,11.49,13.08,20.04,25.41,20.04,14.43,0,26.14-11.7,26.14-26.14,0-1.63-.16-3.23-.44-4.78Z"/>
          <path class="cls-3" d="m63.32,81.55c0,.63-.51,1.14-1.14,1.14s-1.14-.51-1.14-1.14.51-1.14,1.14-1.14,1.14.51,1.14,1.14Z"/>
          <path class="cls-3" d="m77.46,88.63c0,.63-.51,1.14-1.14,1.14s-1.14-.51-1.14-1.14.51-1.14,1.14-1.14,1.14.51,1.14,1.14Z"/>
          <path class="cls-3" d="m90.05,90.71c0,.63-.51,1.14-1.14,1.14s-1.14-.51-1.14-1.14.51-1.14,1.14-1.14,1.14.51,1.14,1.14Z"/>
          <path class="cls-3" d="m75.8,70.73c0,.63-.51,1.14-1.14,1.14s-1.14-.51-1.14-1.14.51-1.14,1.14-1.14,1.14.51,1.14,1.14Z"/>
          <circle class="cls-3" cx="88.8" cy="66.78" r="1.14"/>
          <path class="cls-3" d="m106.49,80.51c0,.63-.51,1.14-1.14,1.14s-1.14-.51-1.14-1.14.51-1.14,1.14-1.14,1.14.51,1.14,1.14Z"/>
          <path class="cls-3" d="m84.95,75c0,.63-.51,1.14-1.14,1.14s-1.14-.51-1.14-1.14.51-1.14,1.14-1.14,1.14.51,1.14,1.14Z"/>
          <path class="cls-3" d="m102.22,93.62c0,.63-.51,1.14-1.14,1.14s-1.14-.51-1.14-1.14.51-1.14,1.14-1.14,1.14.51,1.14,1.14Z"/>
          <circle class="cls-3" cx="85.37" cy="101.11" r="1.14"/>
          <path class="cls-3" d="m71.43,98.41c0,.63-.51,1.14-1.14,1.14s-1.14-.51-1.14-1.14.51-1.14,1.14-1.14,1.14.51,1.14,1.14Z"/>
          <path class="cls-3" d="m96.19,77.81c0,.63-.51,1.14-1.14,1.14s-1.14-.51-1.14-1.14.51-1.14,1.14-1.14,1.14.51,1.14,1.14Z"/>
        </g>
      </g>
    </g>
  </g>
</svg>